<svg
  width="420"
  height="185"
  viewBox="0 0 420 185"
  fill="none"
  xmlns="http://www.w3.org/2000/svg"
  role="img"
  aria-label="Duolingo Stats Card for yongsk0066"
>
  <title>Duolingo Stats - yongsk0066</title>
  <style>
    @keyframes gradient-shift {
      0% { stop-color: #58cc02; }
      50% { stop-color: #1cb0f6; }
      100% { stop-color: #58cc02; }
    }
    @keyframes pulse {
      0%, 100% { opacity: 1; }
      50% { opacity: 0.8; }
    }
    .streak-icon { animation: pulse 2s ease-in-out infinite; }
    .card-bg { transition: all 0.3s ease; }
  </style>

  <defs>
    <linearGradient id="card-gradient" x1="0%" y1="0%" x2="100%" y2="100%">
      <stop offset="0%" style="stop-color:#0D1117" />
      <stop offset="100%" style="stop-color:#0D1117" />
    </linearGradient>
    <linearGradient id="streak-gradient" x1="0%" y1="0%" x2="100%" y2="100%">
      <stop offset="0%" style="stop-color:#ff9600">
        <animate attributeName="stop-color" values="#ff9600;#ffc600;#ff9600" dur="3s" repeatCount="indefinite"/>
      </stop>
      <stop offset="100%" style="stop-color:#ffc600">
        <animate attributeName="stop-color" values="#ffc600;#ff9600;#ffc600" dur="3s" repeatCount="indefinite"/>
      </stop>
    </linearGradient>
    <clipPath id="card-clip">
      <rect width="420" height="185" rx="10" ry="10"/>
    </clipPath>
  </defs>

  <!-- Card Background -->
  <g clip-path="url(#card-clip)">
    <rect class="card-bg" width="420" height="185" fill="#0D1117" rx="10" ry="10"/>
    <rect width="420" height="185" fill="none" stroke="#8B949E" stroke-opacity="0.2" stroke-width="1" rx="10" ry="10"/>
  </g>

  <!-- Stats Section -->
  <g transform="translate(20, 25)">
    <!-- Streak -->
    <g class="streak-icon">
      <svg width="32" height="32" viewBox="0 0 283 250">
        <path style="opacity:0.849" fill="#ffc700" d="M 130.5,18.5 C 137.488,17.6478 139.822,20.4811 137.5,27C 132.984,29.2444 129.984,27.9111 128.5,23C 129.044,21.415 129.711,19.915 130.5,18.5 Z"/>
        <path style="opacity:0.959" fill="#ffc700" d="M 104.5,35.5 C 112.021,36.1096 117.355,39.9429 120.5,47C 117.934,51.5726 114.601,55.5726 110.5,59C 108.5,59.6667 106.5,59.6667 104.5,59C 101.667,56.1667 98.8333,53.3333 96,50.5C 95.3333,48.5 95.3333,46.5 96,44.5C 99.0379,41.6306 101.871,38.6306 104.5,35.5 Z"/>
        <path style="opacity:0.994" fill="url(#streak-gradient)" d="M 139.5,52.5 C 144.997,52.328 149.497,54.328 153,58.5C 168.333,78.5 183.667,98.5 199,118.5C 213.332,141.771 215.332,166.105 205,191.5C 184.043,226.823 153.877,238.323 114.5,226C 91.0308,215.533 76.8641,197.7 72,172.5C 71.8333,158.5 71.6667,144.5 71.5,130.5C 71.3488,115.744 71.8488,101.077 73,86.5C 78.381,79.8621 84.881,78.3621 92.5,82C 96.6983,85.03 101.032,87.8633 105.5,90.5C 114.713,78.5758 124.046,66.7425 133.5,55C 135.611,54.1553 137.611,53.322 139.5,52.5 Z"/>
        <path style="opacity:1" fill="#ffc600" d="M 139.5,126.5 C 141.936,126.317 144.103,126.984 146,128.5C 152.667,137.167 159.333,145.833 166,154.5C 176.488,175.689 170.988,191.189 149.5,201C 129.821,203.747 117.321,195.581 112,176.5C 110.561,168.479 112.227,161.146 117,154.5C 124.394,144.954 131.894,135.621 139.5,126.5 Z"/>
      </svg>
    </g>
    <text x="40" y="24" font-family="Segoe UI, sans-serif" font-size="22" font-weight="bold" fill="#C9D1D9">364</text>
    <text x="40" y="24" font-family="Segoe UI, sans-serif" font-size="22" font-weight="bold" fill="#C9D1D9">
      <tspan dx="45">Day streak</tspan>
    </text>

    <!-- Total XP -->
    <g transform="translate(0, 40)">
      <svg width="32" height="32" viewBox="0 0 56 56">
        <path fill-rule="evenodd" clip-rule="evenodd" d="M32.082 10.2876C31.7904 7.41973 28.1083 6.43313 26.4218 8.77092L12.5412 28.0121C11.2575 29.7916 12.1524 32.3055 14.2719 32.8734L22.1682 34.9892L23.3346 46.4591C23.6262 49.327 27.3083 50.3135 28.9948 47.9758L42.8754 28.7346C44.1592 26.9551 43.2642 24.4412 41.1447 23.8733L33.2485 21.7575L32.082 10.2876Z" fill="#FFD900"/>
        <path d="M15.2647 30.5578C14.5466 30.3639 14.4773 29.3724 15.1614 29.0805L20.6493 26.739C21.1448 26.5276 21.7009 26.8677 21.7385 27.4051L22.011 31.3016C22.0485 31.839 21.5452 32.2531 21.0251 32.1127L15.2647 30.5578Z" fill="#F7C100"/>
        <path d="M40.4157 25.8056C41.1338 25.9995 41.2031 26.991 40.519 27.2829L35.0311 29.6244C34.5356 29.8358 33.9795 29.4957 33.9419 28.9583L33.6695 25.0618C33.6319 24.5244 34.1353 24.1103 34.6554 24.2507L40.4157 25.8056Z" fill="#FFEF8F"/>
      </svg>
      <text x="40" y="24" font-family="Segoe UI, sans-serif" font-size="22" font-weight="bold" fill="#C9D1D9">124.6K XP</text>
    </g>
  </g>

  <!-- Courses Section -->
  <g>
    
      <g transform="translate(40, 110)">
        <!-- XP Badge -->
        <g transform="translate(12, 0)">
          <svg width="20" height="20" viewBox="0 0 56 56">
            <path fill-rule="evenodd" clip-rule="evenodd" d="M32.082 10.2876C31.7904 7.41973 28.1083 6.43313 26.4218 8.77092L12.5412 28.0121C11.2575 29.7916 12.1524 32.3055 14.2719 32.8734L22.1682 34.9892L23.3346 46.4591C23.6262 49.327 27.3083 50.3135 28.9948 47.9758L42.8754 28.7346C44.1592 26.9551 43.2642 24.4412 41.1447 23.8733L33.2485 21.7575L32.082 10.2876Z" fill="#FFD900"/>
            <path d="M15.2647 30.5578C14.5466 30.3639 14.4773 29.3724 15.1614 29.0805L20.6493 26.739C21.1448 26.5276 21.7009 26.8677 21.7385 27.4051L22.011 31.3016C22.0485 31.839 21.5452 32.2531 21.0251 32.1127L15.2647 30.5578Z" fill="#F7C100"/>
            <path d="M40.4157 25.8056C41.1338 25.9995 41.2031 26.991 40.519 27.2829L35.0311 29.6244C34.5356 29.8358 33.9795 29.4957 33.9419 28.9583L33.6695 25.0618C33.6319 24.5244 34.1353 24.1103 34.6554 24.2507L40.4157 25.8056Z" fill="#FFEF8F"/>
          </svg>
        </g>
        <text x="22" y="30" font-size="12" font-weight="bold" fill="#8B949E" text-anchor="middle">96.9K</text>
        <!-- Flag -->
        <g transform="translate(0, 38) scale(0.6)">
          
    <title>no</title>
    <g id="no" stroke="none" stroke-width="1" fill="none" fill-rule="evenodd">
        <g id="Group" transform="translate(6.000000, 6.000000)">
            <path d="M57.4369625,-2 L12.5630375,-2 C7.62820119,-2 5.86681923,-1.41548743 4.07025832,-0.45467615 C2.11952904,0.588585286 0.588585286,2.11952904 -0.45467615,4.07025832 C-1.41548743,5.86681923 -2,7.62820119 -2,12.5630375 L-2,41.4369625 C-2,46.3717988 -1.41548743,48.1331808 -0.45467615,49.9297417 C0.588585286,51.880471 2.11952904,53.4114147 4.07025832,54.4546762 C5.86681923,55.4154874 7.62820119,56 12.5630375,56 L57.4369625,56 C62.3717988,56 64.1331808,55.4154874 65.9297417,54.4546762 C67.880471,53.4114147 69.4114147,51.880471 70.4546762,49.9297417 C71.4154874,48.1331808 72,46.3717988 72,41.4369625 L72,12.5630375 C72,7.62820119 71.4154874,5.86681923 70.4546762,4.07025832 C69.4114147,2.11952904 67.880471,0.588585286 65.9297417,-0.45467615 C64.1331808,-1.41548743 62.3717988,-2 57.4369625,-2 Z"
                  id="Rectangle-3" stroke="#FFFFFF" stroke-width="4" fill="#FF4B4B" fill-rule="nonzero"/>
            <polygon id="Path" fill="#FFFFFF" fill-rule="nonzero"
                     points="15 1.55732412e-15 29 0 29 20 70 20 70 34 29 34 29 54 15 54 15 34 0 34 1.48289288e-15 20 15 20"/>
            <polygon id="Path" fill="#1CB0F6"
                     points="26 23 70 23 70 31 26 31 26 54 18 54 18 31 0 31 0 23 18 23 18 0 26 0"/>
        </g>
    </g>

        </g>
      </g>
    
      <g transform="translate(150, 110)">
        <!-- XP Badge -->
        <g transform="translate(12, 0)">
          <svg width="20" height="20" viewBox="0 0 56 56">
            <path fill-rule="evenodd" clip-rule="evenodd" d="M32.082 10.2876C31.7904 7.41973 28.1083 6.43313 26.4218 8.77092L12.5412 28.0121C11.2575 29.7916 12.1524 32.3055 14.2719 32.8734L22.1682 34.9892L23.3346 46.4591C23.6262 49.327 27.3083 50.3135 28.9948 47.9758L42.8754 28.7346C44.1592 26.9551 43.2642 24.4412 41.1447 23.8733L33.2485 21.7575L32.082 10.2876Z" fill="#FFD900"/>
            <path d="M15.2647 30.5578C14.5466 30.3639 14.4773 29.3724 15.1614 29.0805L20.6493 26.739C21.1448 26.5276 21.7009 26.8677 21.7385 27.4051L22.011 31.3016C22.0485 31.839 21.5452 32.2531 21.0251 32.1127L15.2647 30.5578Z" fill="#F7C100"/>
            <path d="M40.4157 25.8056C41.1338 25.9995 41.2031 26.991 40.519 27.2829L35.0311 29.6244C34.5356 29.8358 33.9795 29.4957 33.9419 28.9583L33.6695 25.0618C33.6319 24.5244 34.1353 24.1103 34.6554 24.2507L40.4157 25.8056Z" fill="#FFEF8F"/>
          </svg>
        </g>
        <text x="22" y="30" font-size="12" font-weight="bold" fill="#8B949E" text-anchor="middle">19.5K</text>
        <!-- Flag -->
        <g transform="translate(0, 38) scale(0.6)">
          
    <title>fi</title>
    <g id="fi" stroke="none" stroke-width="1" fill="none" fill-rule="evenodd">
        <g id="Group" transform="translate(6.000000, 6.000000)">
            <path d="M57.4369625,-2 L12.5630375,-2 C7.62820119,-2 5.86681923,-1.41548743 4.07025832,-0.45467615 C2.11952904,0.588585286 0.588585286,2.11952904 -0.45467615,4.07025832 C-1.41548743,5.86681923 -2,7.62820119 -2,12.5630375 L-2,41.4369625 C-2,46.3717988 -1.41548743,48.1331808 -0.45467615,49.9297417 C0.588585286,51.880471 2.11952904,53.4114147 4.07025832,54.4546762 C5.86681923,55.4154874 7.62820119,56 12.5630375,56 L57.4369625,56 C62.3717988,56 64.1331808,55.4154874 65.9297417,54.4546762 C67.880471,53.4114147 69.4114147,51.880471 70.4546762,49.9297417 C71.4154874,48.1331808 72,46.3717988 72,41.4369625 L72,12.5630375 C72,7.62820119 71.4154874,5.86681923 70.4546762,4.07025832 C69.4114147,2.11952904 67.880471,0.588585286 65.9297417,-0.45467615 C64.1331808,-1.41548743 62.3717988,-2 57.4369625,-2 Z"
                  id="Rectangle-3" stroke="#FFFFFF" stroke-width="4" fill="#EEEEEE" fill-rule="nonzero"/>
            <polygon id="Path" fill="#1899D6"
                     points="31 21 70 21 70 33 31 33 31 54 19 54 19 33 0 33 0 21 19 21 19 0 31 0"/>
        </g>
    </g>

        </g>
      </g>
    
      <g transform="translate(260, 110)">
        <!-- XP Badge -->
        <g transform="translate(12, 0)">
          <svg width="20" height="20" viewBox="0 0 56 56">
            <path fill-rule="evenodd" clip-rule="evenodd" d="M32.082 10.2876C31.7904 7.41973 28.1083 6.43313 26.4218 8.77092L12.5412 28.0121C11.2575 29.7916 12.1524 32.3055 14.2719 32.8734L22.1682 34.9892L23.3346 46.4591C23.6262 49.327 27.3083 50.3135 28.9948 47.9758L42.8754 28.7346C44.1592 26.9551 43.2642 24.4412 41.1447 23.8733L33.2485 21.7575L32.082 10.2876Z" fill="#FFD900"/>
            <path d="M15.2647 30.5578C14.5466 30.3639 14.4773 29.3724 15.1614 29.0805L20.6493 26.739C21.1448 26.5276 21.7009 26.8677 21.7385 27.4051L22.011 31.3016C22.0485 31.839 21.5452 32.2531 21.0251 32.1127L15.2647 30.5578Z" fill="#F7C100"/>
            <path d="M40.4157 25.8056C41.1338 25.9995 41.2031 26.991 40.519 27.2829L35.0311 29.6244C34.5356 29.8358 33.9795 29.4957 33.9419 28.9583L33.6695 25.0618C33.6319 24.5244 34.1353 24.1103 34.6554 24.2507L40.4157 25.8056Z" fill="#FFEF8F"/>
          </svg>
        </g>
        <text x="22" y="30" font-size="12" font-weight="bold" fill="#8B949E" text-anchor="middle">3.5K</text>
        <!-- Flag -->
        <g transform="translate(0, 38) scale(0.6)">
          
    <title>ja</title>
    <g id="ja" stroke="none" stroke-width="1" fill="none" fill-rule="evenodd">
        <g id="Group" transform="translate(6.000000, 6.000000)">
            <path d="M57.4369627,-2 L12.5630373,-2 C7.62820107,-2 5.86681913,-1.41548744 4.07025825,-0.45467617 C2.11952899,0.588585254 0.588585254,2.11952899 -0.45467617,4.07025825 C-1.41548744,5.86681913 -2,7.62820107 -2,12.5630373 L-2,41.4369627 C-2,46.3717989 -1.41548744,48.1331809 -0.45467617,49.9297418 C0.588585254,51.880471 2.11952899,53.4114147 4.07025825,54.4546762 C5.86681913,55.4154874 7.62820107,56 12.5630373,56 L57.4369627,56 C62.3717989,56 64.1331809,55.4154874 65.9297418,54.4546762 C67.880471,53.4114147 69.4114147,51.880471 70.4546762,49.9297418 C71.4154874,48.1331809 72,46.3717989 72,41.4369627 L72,12.5630373 C72,7.62820107 71.4154874,5.86681913 70.4546762,4.07025825 C69.4114147,2.11952899 67.880471,0.588585254 65.9297418,-0.45467617 C64.1331809,-1.41548744 62.3717989,-2 57.4369627,-2 Z"
                  id="Rectangle-3" stroke="#FFFFFF" stroke-width="4" fill="#EEEEEE"/>
            <circle id="Oval-19" fill="#FF4B4B" fill-rule="nonzero" cx="35" cy="27" r="14"/>
        </g>
    </g>

        </g>
      </g>
    
  </g>

  <!-- Duo Character -->
  <g transform="translate(310, 20) scale(0.85)">
    <svg viewBox="0 -3 148 174" width="120" height="160">
      <path fill-rule="evenodd" clip-rule="evenodd" d="m 90.9582,168.134 c 0,-3.893 -3.1969,-7.196 -7.2227,-7.196 H 72.2504 c -3.9074,0 -7.2227,3.185 -7.2227,7.196 0,3.892 3.1969,7.195 7.2227,7.195 h 11.4851 c 4.0258,0 7.2227,-3.185 7.2227,-7.195 z" fill="#f49000"/>
      <path fill-rule="evenodd" clip-rule="evenodd" d="m 129.795,171.319 c 1.776,-3.539 0.355,-7.786 -3.079,-9.555 l -6.986,-3.539 c -3.552,-1.77 -7.814,-0.354 -9.59,3.067 -1.777,3.539 -0.356,7.785 3.078,9.555 l 6.986,3.539 c 3.552,1.887 7.815,0.472 9.591,-3.067 z" fill="#f49000"/>
      <path fill-rule="evenodd" clip-rule="evenodd" d="m 134.412,168.252 c 0,-3.893 -3.197,-7.078 -7.104,-7.078 h -2.25 c -3.907,0 -7.104,3.185 -7.104,7.078 0,3.892 3.197,7.077 7.104,7.077 h 2.25 c 3.907,0 7.104,-3.185 7.104,-7.077 z" fill="#f49000"/>
      <path d="M 75.8023,90.3967 119.493,4.99218 c 2.369,-4.600514 8.526,-5.54421 12.196,-1.88739 17.524,17.45841 21.905,44.58961 10.42,67.12041 -11.486,22.5307 -36.232,34.9168 -60.7417,31.0238 -5.0913,-0.826 -7.933,-6.2518 -5.565,-10.8523 z" fill="#58cc02"/>
      <path d="M 7.60174,153.27 26.5464,64.563 c 1.0656,-4.7185 6.3938,-7.0778 10.6563,-4.7185 20.3655,11.6782 31.0219,35.3886 26.0489,58.7455 -4.973,23.356 -24.628,40.932 -47.9536,43.292 -4.8546,0.471 -8.7619,-3.775 -7.69626,-8.612 z" fill="#58cc02"/>
      <path fill-rule="evenodd" clip-rule="evenodd" d="M 71.0663,19.1479 C 60.7651,30.9441 53.1873,38.0218 48.3327,40.381 43.5965,42.7403 33.4138,44.2738 18.0213,44.9816 7.83854,45.4534 0.0238728,54.1826 0.497489,64.4453 0.615893,66.9225 1.20791,69.3997 2.39195,71.641 l 25.10165,51.195 c 13.3797,27.368 46.5328,38.692 74.1214,25.362 27.469,-13.329 38.836,-46.241 25.456,-73.49 V 74.59 L 101.733,23.1586 C 97.2336,13.9575 86.1036,10.1828 76.8681,14.6653 c -2.1313,1.0617 -4.1442,2.5952 -5.8018,4.4826 z" fill="#58cc02"/>
      <path fill-rule="evenodd" clip-rule="evenodd" d="M 75.9207,36.7243 74.3815,37.432 C 64.0803,42.3864 59.8178,54.6545 64.9092,64.9172 l 6.6306,13.4476 c 4.973,10.1448 17.287,14.3914 27.5881,9.437 l 1.5391,-0.7078 c 10.301,-4.9544 14.564,-17.2224 9.473,-27.4851 L 103.509,46.1612 C 98.5359,36.0165 86.2219,31.7699 75.9207,36.7243 Z" fill="#89e219"/>
      <path fill-rule="evenodd" clip-rule="evenodd" d="m 27.7303,59.6085 -1.5392,0.7078 C 15.8899,65.2707 11.6274,77.5388 16.7187,87.8015 l 6.6307,13.4475 c 4.9729,10.145 17.2869,14.392 27.5881,9.437 l 1.4208,-0.708 C 62.5411,105.024 66.8036,92.7559 61.9491,82.6111 L 55.4368,69.0455 C 50.4639,58.9008 38.1499,54.6541 27.7303,59.6085 c 0.1184,0 0,0 0,0 z" fill="#89e219"/>
      <path fill-rule="evenodd" clip-rule="evenodd" d="m 31.4009,67.1583 c -7.5778,3.6568 -10.6563,12.7399 -6.9858,20.1715 l 4.0257,8.1394 c 3.6705,7.5498 12.7876,10.6168 20.3655,6.9598 7.5779,-3.6569 10.6564,-12.74 6.9858,-20.1716 L 51.7664,74.118 C 47.9775,66.6864 38.8604,63.5015 31.4009,67.1583 Z" fill="#ffffff"/>
      <path fill-rule="evenodd" clip-rule="evenodd" d="m 37.4395,73.6463 c -3.5521,1.7694 -4.9729,6.0161 -3.3153,9.5549 l 3.4338,6.9598 c 1.776,3.5388 6.0386,4.9544 9.5907,3.3029 3.5521,-1.7694 4.9729,-6.016 3.3153,-9.5549 l -3.4337,-6.9598 c -1.6577,-3.6568 -5.9202,-5.0723 -9.5908,-3.3029 z" fill="#122431"/>
      <path d="m 34.2425,82.9654 c 2.4849,0 4.4994,-2.007 4.4994,-4.4826 0,-2.4756 -2.0145,-4.4826 -4.4994,-4.4826 -2.4849,0 -4.4993,2.007 -4.4993,4.4826 0,2.4756 2.0144,4.4826 4.4993,4.4826 z" fill="#ffffff"/>
      <path fill-rule="evenodd" clip-rule="evenodd" d="m 79.9464,43.4478 c -7.5778,3.6568 -10.6563,12.7399 -6.9858,20.1715 l 4.0257,8.1393 c 3.6706,7.5496 12.7877,10.6166 20.3655,6.9598 7.5782,-3.6568 10.6562,-12.7399 6.9862,-20.1715 l -4.026,-8.1394 C 96.6414,42.8579 87.5243,39.7909 79.9464,43.4478 Z" fill="#ffffff"/>
      <path fill-rule="evenodd" clip-rule="evenodd" d="m 81.7225,52.4129 c -3.5521,1.7695 -4.973,6.0161 -3.3153,9.5549 l 3.4337,6.9598 c 1.7761,3.5389 6.0386,4.9544 9.5907,3.3029 3.5522,-1.7694 4.973,-6.016 3.3153,-9.5549 L 91.3132,55.7159 C 89.6556,52.177 85.393,50.7615 81.7225,52.4129 Z" fill="#122431"/>
      <path d="m 78.2888,62.2039 c 2.4849,0 4.4993,-2.0069 4.4993,-4.4826 0,-2.4756 -2.0144,-4.4825 -4.4993,-4.4825 -2.4849,0 -4.4994,2.0069 -4.4994,4.4825 0,2.4757 2.0145,4.4826 4.4994,4.4826 z" fill="#ffffff"/>
      <path fill-rule="evenodd" clip-rule="evenodd" d="m 66.567,78.2467 c -3.9073,1.8874 -5.4466,6.488 -3.5521,10.3807 l 0.9472,1.8874 c 1.8945,3.8927 6.6307,5.4262 10.4196,3.5388 3.9073,-1.8873 5.4466,-6.4879 3.5521,-10.3806 L 76.9866,81.7856 C 75.2105,77.8929 70.4743,76.3593 66.567,78.2467 Z" fill="#f49000"/>
      <path d="m 79.9466,81.3138 c -2.9601,-4.0107 -8.7619,-5.5442 -13.8533,-2.9491 -4.6178,2.2413 -6.9858,7.6676 -5.565,12.504 l 0.2368,0.5898 10.538,-3.067 8.9987,-6.3699 z" fill="#ffc200"/>
    </svg>
  </g>

  <!-- Updated timestamp -->
  <text x="410" y="177" font-family="Segoe UI, sans-serif" font-size="9" fill="#8B949E" text-anchor="end" opacity="0.6">
    Updated: 2026-01-07
  </text>
</svg>